<svg width="522" height="58" viewBox="0 0 522 58" fill="none" xmlns="http://www.w3.org/2000/svg">
<path d="M92.685 39.2815H103.041V45.3522H84.78V13.0647H92.685V39.2815Z" fill="#021848"/>
<path d="M131.129 32.1065C131.129 32.8417 131.082 33.6087 130.99 34.4056H113.099C113.222 36.0004 113.731 37.2271 114.624 38.0857C115.549 38.9134 116.674 39.3273 117.999 39.3273C119.972 39.3273 121.343 38.4995 122.114 36.8431H130.528C130.096 38.5304 129.31 40.0475 128.17 41.3966C127.06 42.7456 125.658 43.8042 123.963 44.5702C122.268 45.3373 120.372 45.7203 118.277 45.7203C115.749 45.7203 113.5 45.1831 111.527 44.1106C109.555 43.0371 108.014 41.504 106.904 39.5113C105.795 37.5176 105.24 35.1876 105.24 32.5204C105.24 29.8521 105.779 27.5221 106.858 25.5294C107.967 23.5367 109.508 22.0036 111.481 20.9301C113.453 19.8566 115.719 19.3204 118.277 19.3204C120.773 19.3204 122.992 19.8417 124.934 20.8843C126.875 21.926 128.386 23.4133 129.464 25.3453C130.574 27.2774 131.129 29.5308 131.129 32.1065ZM123.038 30.0361C123.038 28.6871 122.576 27.6146 121.651 26.8168C120.727 26.0199 119.571 25.6209 118.184 25.6209C116.859 25.6209 115.734 26.0049 114.809 26.771C113.916 27.538 113.361 28.6264 113.145 30.0361H123.038Z" fill="#021848"/>
<path d="M151.017 19.4119C154.038 19.4119 156.442 20.3928 158.229 22.3557C160.048 24.2878 160.957 26.955 160.957 30.3585V45.3522H153.098V31.416C153.098 29.6989 152.651 28.3657 151.757 27.4146C150.863 26.4645 149.661 25.989 148.151 25.989C146.641 25.989 145.439 26.4645 144.545 27.4146C143.651 28.3657 143.204 29.6989 143.204 31.416V45.3522H135.299V19.6885H143.204V23.0919C144.006 21.9568 145.084 21.0674 146.441 20.4237C147.797 19.7492 149.322 19.4119 151.017 19.4119Z" fill="#021848"/>
<path d="M164.878 32.4746C164.878 29.8372 165.372 27.5221 166.358 25.5294C167.375 23.5366 168.746 22.0035 170.472 20.9301C172.198 19.8566 174.124 19.3204 176.251 19.3204C177.946 19.3204 179.487 19.6726 180.874 20.3779C182.292 21.0833 183.401 22.0334 184.203 23.2292V11.3176H192.108V45.3522H184.203V41.6732C183.463 42.8988 182.4 43.8808 181.013 44.616C179.657 45.3522 178.069 45.7203 176.251 45.7203C174.124 45.7203 172.198 45.1831 170.472 44.1106C168.746 43.0063 167.375 41.4583 166.358 39.4655C165.372 37.441 164.878 35.111 164.878 32.4746ZM184.203 32.5203C184.203 30.5575 183.648 29.0094 182.538 27.8753C181.46 26.7401 180.134 26.1731 178.563 26.1731C176.991 26.1731 175.65 26.7401 174.54 27.8753C173.462 28.9786 172.922 30.5117 172.922 32.4746C172.922 34.4365 173.462 36.0004 174.54 37.1654C175.65 38.2995 176.991 38.8676 178.563 38.8676C180.134 38.8676 181.46 38.2995 182.538 37.1654C183.648 36.0312 184.203 34.4822 184.203 32.5203Z" fill="#021848"/>
<path d="M201.803 17.0203C200.416 17.0203 199.276 16.6223 198.382 15.8245C197.519 14.9967 197.087 13.9849 197.087 12.7891C197.087 11.5624 197.519 10.5506 198.382 9.75375C199.276 8.92601 200.416 8.51215 201.803 8.51215C203.159 8.51215 204.269 8.92601 205.131 9.75375C206.025 10.5506 206.472 11.5624 206.472 12.7891C206.472 13.9849 206.025 14.9967 205.131 15.8245C204.269 16.6223 203.159 17.0203 201.803 17.0203ZM205.732 19.6885V45.3522H197.827V19.6885H205.732Z" fill="#021848"/>
<path d="M227.18 19.4119C230.2 19.4119 232.604 20.3928 234.392 22.3557C236.21 24.2878 237.119 26.955 237.119 30.3585V45.3522H229.26V31.416C229.26 29.6989 228.813 28.3657 227.919 27.4146C227.026 26.4645 225.824 25.989 224.313 25.989C222.803 25.989 221.601 26.4645 220.707 27.4146C219.814 28.3657 219.367 29.6989 219.367 31.416V45.3522H211.461V19.6885H219.367V23.0919C220.168 21.9568 221.247 21.0674 222.603 20.4237C223.959 19.7492 225.485 19.4119 227.18 19.4119Z" fill="#021848"/>
<path d="M252.413 19.3204C254.232 19.3204 255.819 19.6885 257.175 20.4237C258.562 21.1599 259.625 22.1259 260.365 23.3218V19.6885H268.27V45.3064C268.27 47.6673 267.793 49.7983 266.837 51.6995C265.913 53.6305 264.479 55.1636 262.538 56.2988C260.627 57.4329 258.238 58 255.372 58C251.55 58 248.453 57.0957 246.08 55.287C243.707 53.5082 242.351 51.0856 242.012 48.0195H249.824C250.071 49.0014 250.657 49.7674 251.581 50.3196C252.506 50.9016 253.646 51.1931 255.002 51.1931C256.636 51.1931 257.93 50.7185 258.886 49.7674C259.872 48.8472 260.365 47.3608 260.365 45.3064V41.6732C259.594 42.869 258.531 43.8499 257.175 44.616C255.819 45.3522 254.232 45.7203 252.413 45.7203C250.287 45.7203 248.36 45.1831 246.635 44.1106C244.909 43.0063 243.537 41.4583 242.52 39.4656C241.534 37.441 241.041 35.111 241.041 32.4746C241.041 29.8372 241.534 27.5221 242.52 25.5294C243.537 23.5367 244.909 22.0036 246.635 20.9301C248.36 19.8566 250.287 19.3204 252.413 19.3204ZM260.365 32.5204C260.365 30.5575 259.81 29.0094 258.701 27.8753C257.622 26.7401 256.297 26.1731 254.725 26.1731C253.153 26.1731 251.812 26.7401 250.703 27.8753C249.624 28.9786 249.085 30.5117 249.085 32.4746C249.085 34.4365 249.624 36.0004 250.703 37.1654C251.812 38.2996 253.153 38.8676 254.725 38.8676C256.297 38.8676 257.622 38.2996 258.701 37.1654C259.81 36.0312 260.365 34.4822 260.365 32.5204Z" fill="#021848"/>
<path d="M273.184 39.373V33.0257L287.793 12.2369H296.623V32.5661H300.413V39.373H296.623V45.3522H288.717V39.373H273.184ZM289.272 20.8843L281.505 32.5661H289.272V20.8843Z" fill="#021848"/>
<path d="M313.58 19.3662V25.8975H324.167V31.9682H313.58V39.0507H325.554V45.3522H305.675V13.0647H325.554V19.3662H313.58Z" fill="#021848"/>
<path d="M342.29 37.9931L347.883 19.6875H356.297L347.144 45.3522H337.389L328.236 19.6875H336.696L342.29 37.9931Z" fill="#021848"/>
<path d="M383.942 32.1065C383.942 32.8417 383.896 33.6087 383.803 34.4056H365.912C366.035 36.0004 366.544 37.2271 367.438 38.0857C368.362 38.9134 369.487 39.3273 370.812 39.3273C372.785 39.3273 374.156 38.4995 374.927 36.8431H383.341C382.909 38.5294 382.123 40.0475 380.983 41.3966C379.874 42.7456 378.471 43.8032 376.776 44.5702C375.081 45.3363 373.186 45.7203 371.09 45.7203C368.563 45.7203 366.313 45.1831 364.34 44.1106C362.368 43.0371 360.827 41.504 359.717 39.5113C358.608 37.5176 358.053 35.1876 358.053 32.5204C358.053 29.8521 358.592 27.5221 359.671 25.5294C360.781 23.5357 362.322 22.0026 364.294 20.9301C366.266 19.8566 368.532 19.3204 371.09 19.3204C373.586 19.3204 375.805 19.8417 377.747 20.8833C379.689 21.926 381.199 23.4133 382.278 25.3453C383.387 27.2764 383.942 29.5308 383.942 32.1065ZM375.852 30.0361C375.852 28.6871 375.389 27.6136 374.465 26.8168C373.54 26.0199 372.384 25.6209 370.997 25.6209C369.672 25.6209 368.547 26.0039 367.623 26.771C366.729 27.537 366.174 28.6264 365.958 30.0361H375.852Z" fill="#021848"/>
<path d="M396.018 23.9654C396.942 22.5547 398.098 21.4514 399.485 20.6535C400.872 19.8258 402.413 19.4119 404.108 19.4119V27.737H401.935C399.963 27.737 398.483 28.1658 397.497 29.0243C396.511 29.8521 396.018 31.3245 396.018 33.4396V45.3522H388.112V19.6875H396.018V23.9654Z" fill="#021848"/>
<path d="M434.238 19.6875L418.057 57.5404H409.551L415.468 44.4777L404.974 19.6875H413.804L419.768 35.7398L425.685 19.6875H434.238Z" fill="#021848"/>
<path d="M448.839 45.7203C446.312 45.7203 444.031 45.1831 441.997 44.1106C439.993 43.0371 438.406 41.504 437.235 39.5113C436.095 37.5176 435.525 35.1876 435.525 32.5204C435.525 29.8829 436.11 27.5679 437.281 25.5751C438.452 23.5516 440.055 22.0026 442.089 20.9301C444.123 19.8566 446.404 19.3204 448.931 19.3204C451.458 19.3204 453.739 19.8566 455.773 20.9301C457.807 22.0026 459.41 23.5516 460.581 25.5751C461.752 27.5679 462.338 29.8829 462.338 32.5204C462.338 35.1568 461.737 37.4877 460.535 39.5113C459.364 41.504 457.746 43.0371 455.681 44.1106C453.647 45.1831 451.366 45.7203 448.839 45.7203ZM448.839 38.9134C450.349 38.9134 451.628 38.3612 452.676 37.2569C453.755 36.1536 454.294 34.5748 454.294 32.5204C454.294 30.4659 453.77 28.8861 452.722 27.7828C451.705 26.6785 450.441 26.1273 448.931 26.1273C447.39 26.1273 446.111 26.6785 445.094 27.7828C444.077 28.8562 443.569 30.4351 443.569 32.5204C443.569 34.5748 444.062 36.1536 445.048 37.2569C446.065 38.3612 447.329 38.9134 448.839 38.9134Z" fill="#021848"/>
<path d="M482.25 19.4119C485.271 19.4119 487.674 20.3928 489.462 22.3557C491.28 24.2868 492.19 26.955 492.19 30.3585V45.3522H484.331V31.416C484.331 29.6989 483.884 28.3657 482.99 27.4146C482.096 26.4645 480.894 25.989 479.384 25.989C477.874 25.989 476.672 26.4645 475.778 27.4146C474.884 28.3657 474.437 29.6989 474.437 31.416V45.3522H466.532V19.6875H474.437V23.0909C475.239 21.9568 476.317 21.0674 477.673 20.4237C479.029 19.7492 480.555 19.4119 482.25 19.4119Z" fill="#021848"/>
<path d="M522 32.1065C522 32.8417 521.954 33.6087 521.861 34.4056H503.97C504.094 36.0004 504.602 37.2271 505.496 38.0857C506.421 38.9134 507.545 39.3273 508.871 39.3273C510.843 39.3273 512.215 38.4995 512.985 36.8431H521.399C520.968 38.5294 520.182 40.0475 519.041 41.3966C517.932 42.7456 516.53 43.8032 514.834 44.5702C513.139 45.3363 511.244 45.7203 509.148 45.7203C506.621 45.7203 504.371 45.1831 502.399 44.1106C500.426 43.0371 498.885 41.504 497.776 39.5113C496.666 37.5176 496.111 35.1876 496.111 32.5204C496.111 29.8521 496.651 27.5221 497.729 25.5294C498.839 23.5357 500.38 22.0026 502.352 20.9301C504.325 19.8566 506.59 19.3204 509.148 19.3204C511.645 19.3204 513.864 19.8417 515.805 20.8833C517.747 21.926 519.257 23.4133 520.336 25.3453C521.445 27.2764 522 29.5308 522 32.1065ZM513.91 30.0361C513.91 28.6871 513.448 27.6136 512.523 26.8168C511.598 26.0199 510.443 25.6209 509.056 25.6209C507.73 25.6209 506.605 26.0039 505.681 26.771C504.787 27.537 504.232 28.6264 504.017 30.0361H513.91Z" fill="#021848"/>
<path fill-rule="evenodd" clip-rule="evenodd" d="M45.055 57.8547C60.214 57.8547 72.577 44.9602 72.577 29.1487C72.577 13.3362 60.214 0.441696 45.055 0.441696C29.896 0.441696 17.532 13.3362 17.532 29.1487C17.532 44.9602 29.896 57.8547 45.055 57.8547Z" fill="#69D558"/>
<path fill-rule="evenodd" clip-rule="evenodd" d="M27.522 57.414C42.681 57.414 55.045 44.5185 55.045 28.707C55.045 12.8955 42.681 0 27.522 0C12.364 0 0 12.8955 0 28.707C0 44.5185 12.364 57.414 27.522 57.414Z" fill="#2667FF"/>
<path fill-rule="evenodd" clip-rule="evenodd" d="M36.918 1.72014C47.492 5.72649 55.043 16.297 55.043 28.709C55.043 41.121 46.885 52.5193 35.658 56.1386C25.085 52.1343 17.532 41.5618 17.532 29.1497C17.532 16.7377 25.69 5.33948 36.918 1.72014Z" fill="#00A5AB"/>
<path d="M34.4359 45.6546V42.0671C29.6269 41.5846 27.2229 39.1233 27.2229 34.6852H32.2609C32.3099 35.7656 32.6479 36.5595 33.2759 37.0649C33.9039 37.5713 34.9799 37.824 36.5019 37.824C38.0239 37.824 39.1359 37.5017 39.8369 36.858C40.5379 36.1914 40.8879 35.11 40.8879 33.6157C40.8879 33.179 40.8149 32.7989 40.6699 32.4776C40.5499 32.1324 40.3319 31.8448 40.0179 31.615C39.7039 31.3852 39.4139 31.2012 39.1479 31.0629C38.8819 30.9017 38.4719 30.7644 37.9159 30.649C37.3839 30.5336 36.9729 30.453 36.6829 30.4072C36.3929 30.3615 35.9219 30.3038 35.2699 30.2351C34.6409 30.1665 34.2189 30.1197 34.0009 30.0968C29.6759 29.5686 27.5129 27.1192 27.5129 22.7497C27.5129 18.3802 29.8209 15.908 34.4359 15.333V11.6072H38.8939V15.3668C42.7849 15.9647 44.9109 18.2648 45.2739 22.2662H40.2359C40.1629 21.1858 39.8249 20.4376 39.2209 20.0238C38.6169 19.587 37.6859 19.3691 36.4299 19.3691C35.0279 19.3691 34.0249 19.6218 33.4209 20.1272C32.8409 20.6107 32.5509 21.4733 32.5509 22.7149C32.5509 23.1745 32.5999 23.5775 32.6959 23.9227C32.7929 24.2669 32.9619 24.5664 33.2039 24.8191C33.4689 25.0489 33.7229 25.2329 33.9649 25.3712C34.2059 25.5095 34.5689 25.6358 35.0519 25.7502C35.5599 25.8656 35.9829 25.9462 36.3209 25.992C36.6589 26.0378 37.1789 26.1074 37.8789 26.1989C38.5799 26.2676 39.1479 26.3372 39.5829 26.4059C40.5009 26.5442 41.2869 26.7392 41.9389 26.9928C42.6159 27.2227 43.2679 27.5908 43.8959 28.0962C44.5489 28.6025 45.0439 29.3039 45.3829 30.2003C45.7209 31.0977 45.8899 32.1781 45.8899 33.4436C45.8899 36.1108 45.3339 38.1344 44.2229 39.5143C43.1109 40.8942 41.3349 41.7338 38.8939 42.0323V45.6546H34.4359Z" fill="white"/>
</svg>
