<svg xmlns="http://www.w3.org/2000/svg" width="1920" height="836" fill="none"><mask id="a" width="1920" height="836" x="0" y="0" maskUnits="userSpaceOnUse" style="mask-type:alpha"><path fill="#30333D" stroke="#949DFF" d="M.5.5h1919v835H.5z"/></mask><g mask="url(#a)"><path fill="#2D3272" d="M1569.23 625.422c1.65 2.665 4.1 3.127 6.84 4.817-1.74 2.278-2.46 3.939-2.7 6.577-.19 2.124.64 8.259-.3 8.858-.28 2.855 1.4 5.603.58 8.308-1.1 3.62-4.85 7.712-6.93 10.891-3.91 5.961-8.47 14.102-6.22 21.699 2.51 8.464 12.02 8.998 15.84 15.853 2.77 4.965-4.95 11.102-7.05 15.743-2.56 5.664 1.44 8.305 1.43 13.848-.01 3.184-2.42 6.178-3.75 8.906-1.94 3.971-3.77 8.025-5.66 12.024-2.31 4.91-2.95 8.115-1.57 13.322 2.24 8.452 7.15 15.373 10.51 23.181-.68.139.08.015.47.052 1.05 4.621-5.19 13.75-6.78 18.512-1.85 5.531.65 5.837 1.61 10.822.49 2.56-.59 4.603-1.66 6.927-1.56 3.369-2.92 6.791-4.23 10.238h301.9c-.74-2.274-1.39-4.574-1.65-6.947-.63-5.661.45-12.784-1.52-18.095-2.59-6.965-12.87-9.707-16.9-16.093-3.97-6.283-.15-15.668-5.19-21.951-3.38-4.216-11.94-4.233-14.56-8.894-2.57-4.581-6.03-8.586-10.04-12.406.03-2.193-.33-5.658-1-7.727-.95-2.91-1.73-2.436-4.97-3.598-4.98-1.792-7.09-5.331-10.51-9.201-5-5.675-13.92-11.004-15.32-19.034 1.48-1.957 2.36-8.314 2.7-11.441.32-3.008 1.24-5.014 2.08-7.929 1.37-4.742-2.05-9.369-1.76-13.151-.08.161-.18.283-.26.404 1.37-3.138 1.57-7.609 1.26-11.134-.17-1.922-1.18-4.063-.13-5.661.44-.662 2.83-2.422 3.14-2.719 4.59-.986 8.06-4.754 9.04-10.057l66.27 25.479-66.27-47.27-1.01-11.4c4.69-3.352 7.7-11.735 7.7-11.735l83.34 4.357-83-24.137-2.68-8.381 1.34-12.405s71.29-33.859 72.29-34.194c1-.336-80.33 13.746-80.33 13.746l-15.06-17.099 19.75-96.551-40.17 88.842-29.78-1.341-33.47-92.865 11.38 105.941c-1.57 2.265-4.15 4.502-6.2 6.542-2.21 2.205-7.29 3.901-8.72 6.569-.37-2.292-1.61-2.832-3.14-4.899-1.53-2.074-.49-2.855-1.09-5.1-.64-2.419-3.41-4.476-4.43-6.678-.79-1.714-.54-3.676-1.11-5.508-.99-3.144-3.44-4.985-6.11-6.961-4.09-3.023-3.23-5-3.67-9.987-.62-7.181-6.28-15.616-4.36-22.589 4.24-15.359 5.69-31.368 5.69-47.363 0-24.8.39-49.784-.33-74.5-.34-11.577-2.04-23.02-2.01-34.648.02-9.325-.2-20.353-2.01-28.883 3.2-6.083 5.94-12.914 7.94-19.538 3.02-10.007 3.7-20.91 2.13-31.238-1.33-8.744-7.88-22.042-.7-28.01 5.42-4.505 15.53-12.998 18.08-20.543 3.89-11.463 3.38-25.028 1.41-36.867-.97-5.785-2.27-13.81-7.36-17.627-2.84-2.139-6.9-.737-9.45-4.081.31.405.61.468.91.191-.89-6.129-3.86-11.712-8.28-15.96-3.07-2.962-8.51-7.727-12.65-8.675-.8 2.136-2.04 4.892-3.74 6.381-2.95-2.844-8.21-3.364-11.99-4.699-.18 4.447-4.1 15.914-9.04 16.35-.52-1.728-.96-3.508-1.11-5.282-5 2.358-14.1 11.197-14.68 16.725-.27 2.595-3.64 4.962-5.02 7.349-2.08 3.609-3.09 7.872-3.77 11.958-1.14 6.802-2.99 14.327-3.23 21.178-.24 6.655 2.02 11.299 5.43 16.694 1.68 2.662 4.99 11.218 7.93 11.886.74 2.56-1.06 6.392-1 9.311.05 2.82.68 2.751 1.92 4.834 2.11 3.546 4.01 7.042 3.6 11.207-.58 5.929-2.15 11.093-3.19 16.991-.91 5.173.78 10.574 1.76 15.7 1.47 7.742 1.89 17.523 5.61 24.427 4.06 2.448-1.7 20.904-2.38 25.184-1.81 11.588-3.45 22.56-6.24 33.963-2.85 11.634-5.31 23.473-7.7 35.24-3.28 16.174-9.63 34.27-8.11 50.773.45 4.881-.61 12.284-.34 18.038.6 13.067-1.99 26.345-2.67 39.551-.28 5.448-.8 10.851-1.35 16.267-.32 3.222 1.62 8.29.68 11.299-4.65.488-10.51 6.504-14.56 9.125-5.19 3.361-8.13 9.063-11.65 14.128-6.81 9.776-10.84 21.393-15.7 32.204-1.23 2.73-2.33 4.964-2.27 7.735.12 5.485 2 11.562 3.34 16.874 1.56 6.186 4.54 13.619 7.89 19.031Z"/></g></svg>